<?xml version="1.0" encoding="utf-8"?>
<!DOCTYPE svg PUBLIC "-//W3C//DTD SVG 1.1//EN" "http://www.w3.org/Graphics/SVG/1.1/DTD/svg11.dtd">
<svg version="1.1" id="Ebene_1" xmlns="http://www.w3.org/2000/svg" xmlns:xlink="http://www.w3.org/1999/xlink" x="0px" y="0px"
	 width="800px" height="800px" viewBox="0 0 800 800" enable-background="new 0 0 800 800" xml:space="preserve">
<g>
	<path fill="#333333" d="M332.111,88.793h36.123v438.288H105.743v-30.403h226.368V88.793z"/>
</g>
<g>
	<path fill="#333333" d="M428.047,504.168c0,31.422,8.607,56.39,25.817,74.898c17.214,18.514,39.128,27.768,65.742,27.768
		c30.821,0,54.287-7.852,70.395-23.564c16.112-15.709,24.166-39.973,24.166-72.797h33.621l0.601,1.801
		c1.004,40.826-10.207,71.85-33.622,93.06c-23.415,21.216-55.132,31.82-95.16,31.82c-37.623,0-68.294-12.008-92.01-36.022
		c-23.715-24.016-35.572-56.333-35.572-96.963V193.77h36.022V504.168z"/>
</g>
<g>
	<g>
		<path fill="#333333" d="M784.5,778.8c-0.528,9.161-14.588,6.7-20.807,6.7c-14.507,0-29.014,0-43.521,0
			c-50.261,0-100.521,0-150.782,0c-64.791,0-129.582,0-194.373,0c-62.763,0-125.525,0-188.288,0c-44.175,0-88.351,0-132.526,0
			c-9.943,0-19.886,0-29.828,0c-4.237,0-8.214-0.161-9.746-5.347c-0.473-1.603-0.13-3.838-0.13-5.462c0-29.72,0-59.438,0-89.157
			c0-56.089,0-112.178,0-168.267c0-65.9,0-131.8,0-197.7c0-59.152,0-118.305,0-177.457c0-35.846,0-71.692,0-107.538
			c0-5.792-2.186-19.073,6.763-19.073c6.167,0,12.334,0,18.502,0c38.921,0,77.843,0,116.765,0c60.572,0,121.145,0,181.717,0
			c65.665,0,131.329,0,196.993,0c54.196,0,108.394,0,162.591,0c26.172,0,52.343,0,78.514,0c8.632,0,8.156,7.203,8.156,13.435
			c0,11.866,0,23.731,0,35.597c0,46.779,0,93.558,0,140.337c0,63.71,0,127.421,0,191.131c0,64.083,0,128.167,0,192.25
			c0,47.896,0,95.793,0,143.69C784.5,747.561,784.5,763.18,784.5,778.8c0,6.448,10,6.448,10,0c0-20.733,0-41.466,0-62.199
			c0-51.159,0-102.319,0-153.479c0-65.027,0-130.055,0-195.083c0-62.337,0-124.674,0-187.011c0-43.087,0-86.175,0-129.262
			c0-9.15,0-18.301,0-27.451c0-7.41-2.926-14.361-10.23-17.45c-3.326-1.406-6.493-1.365-9.942-1.365c-29.022,0-58.046,0-87.068,0
			c-55.724,0-111.447,0-167.172,0c-65.865,0-131.732,0-197.598,0c-59.449,0-118.899,0-178.349,0c-36.474,0-72.948,0-109.422,0
			c-8.741,0-18.299-1.409-25.327,4.891C2.854,16.252,4.5,27.755,4.5,35.718c0,36.474,0,72.948,0,109.422
			c0,59.45,0,118.899,0,178.349c0,65.866,0,131.732,0,197.598c0,55.724,0,111.447,0,167.171c0,29.022,0,58.046,0,87.068
			c0,3.45-0.042,6.617,1.365,9.943c3.088,7.305,10.04,10.23,17.45,10.23c9.15,0,18.301,0,27.451,0c43.087,0,86.175,0,129.262,0
			c62.337,0,124.674,0,187.011,0c65.027,0,130.056,0,195.083,0c51.16,0,102.32,0,153.479,0c20.733,0,41.466,0,62.199,0
			c9.461,0,16.177-7.65,16.699-16.7C794.872,772.354,784.87,772.391,784.5,778.8z"/>
	</g>
</g>
<g>
</g>
<g>
</g>
<g>
</g>
<g>
</g>
<g>
</g>
<g>
</g>
<g>
</g>
<g>
</g>
<g>
</g>
<g>
</g>
<g>
</g>
<g>
</g>
<g>
</g>
<g>
</g>
<g>
</g>
<g>
</g>
<g>
</g>
</svg>
