<?xml version="1.0" encoding="utf-8"?>
<!-- Generator: Adobe Illustrator 16.0.4, SVG Export Plug-In . SVG Version: 6.00 Build 0)  -->
<!DOCTYPE svg PUBLIC "-//W3C//DTD SVG 1.1//EN" "http://www.w3.org/Graphics/SVG/1.1/DTD/svg11.dtd">
<svg version="1.1" id="Ebene_1" xmlns="http://www.w3.org/2000/svg" xmlns:xlink="http://www.w3.org/1999/xlink" x="0px" y="0px"
	 width="800px" height="800px" viewBox="0 0 800 800" enable-background="new 0 0 800 800" xml:space="preserve">
<g>
	<path fill="#333333" d="M332.111,88.793h36.123v438.288H105.743v-30.403h226.368V88.793z"/>
</g>
<g>
	<path fill="#333333" d="M428.047,504.168c0,31.422,8.607,56.39,25.817,74.898c17.214,18.514,39.128,27.768,65.742,27.768
		c30.821,0,54.287-7.852,70.395-23.564c16.112-15.709,24.166-39.973,24.166-72.797h33.621l0.601,1.801
		c1.004,40.826-10.207,71.85-33.622,93.06c-23.415,21.216-55.132,31.82-95.16,31.82c-37.623,0-68.294-12.008-92.01-36.022
		c-23.715-24.016-35.572-56.333-35.572-96.963V193.77h36.022V504.168z"/>
</g>
<g>
	<g>
		<path fill="#333333" d="M794.5,788.5c-0.506,9.385-14.104,7-20.487,7c-14.112,0-28.226,0-42.338,0c-49.344,0-98.688,0-148.032,0
			c-64.38,0-128.761,0-193.142,0c-63.672,0-127.345,0-191.017,0c-47.218,0-94.437,0-141.655,0c-12.519,0-25.037,0-37.556,0
			c-6.094,0-15.773,1.514-15.773-7.551c0-23.637,0-47.273,0-70.91c0-52.293,0-104.587,0-156.88c0-65.204,0-130.409,0-195.613
			c0-62.37,0-124.741,0-187.111c0-43.791,0-87.582,0-131.372c0-10.008,0-20.016,0-30.023c0-2.823-0.311-5.665,1.627-8.044
			C8.428,5.17,11.722,5.5,14.89,5.5c28.425,0,56.849,0,85.274,0c54.956,0,109.911,0,164.867,0c65.741,0,131.482,0,197.224,0
			c60.781,0,121.562,0,182.344,0c40.076,0,80.152,0,120.229,0c7.353,0,14.706,0,22.06,0c9.06,0,7.613,9.429,7.613,15.54
			c0,32.925,0,65.851,0,98.777c0,57.331,0,114.662,0,171.993c0,65.991,0,131.982,0,197.973c0,58.906,0,117.812,0,176.717
			c0,36.075,0,72.149,0,108.225C794.5,779.315,794.5,783.908,794.5,788.5c0,6.448,10,6.448,10,0c0-20.285,0-40.57,0-60.855
			c0-50.359,0-100.718,0-151.077c0-64.688,0-129.374,0-194.062c0-63.271,0-126.541,0-189.811c0-46.107,0-92.215,0-138.323
			c0-11.697,0-23.395,0-35.092c0-2.148,0-4.297,0-6.446c0-9.659-7.745-17.334-17.383-17.334c-23.088,0-46.175,0-69.262,0
			c-51.979,0-103.959,0-155.938,0c-65.128,0-130.255,0-195.382,0c-62.529,0-125.058,0-187.587,0c-44.186,0-88.372,0-132.558,0
			c-10.293,0-20.587,0-30.881,0c-1.775,0-3.545-0.025-5.317,0.07C0.345-3.899-5.5,4.898-5.5,14.02c0,25.8,0,51.6,0,77.4
			c0,53.512,0,107.024,0,160.536c0,65.479,0,130.957,0,196.436c0,61.699,0,123.398,0,185.099c0,42.175,0,84.35,0,126.525
			c0,8.846,0,17.691,0,26.537c0,7.564,3.197,14.752,10.715,17.7c3.249,1.274,6.329,1.247,9.675,1.247c28.425,0,56.849,0,85.274,0
			c54.956,0,109.911,0,164.867,0c65.741,0,131.482,0,197.224,0c60.781,0,121.562,0,182.344,0c40.076,0,80.152,0,120.229,0
			c6.221,0,12.442,0,18.663,0c1.226,0,2.45,0,3.676,0c9.738,0,16.823-7.521,17.334-17C804.848,782.053,794.846,782.087,794.5,788.5z
			"/>
	</g>
</g>
<g>
</g>
<g>
</g>
<g>
</g>
<g>
</g>
<g>
</g>
<g>
</g>
<g>
</g>
<g>
</g>
<g>
</g>
<g>
</g>
<g>
</g>
<g>
</g>
<g>
</g>
<g>
</g>
<g>
</g>
<g>
</g>
<g>
</g>
</svg>
